<?xml version="1.0" standalone="no"?>
<!DOCTYPE svg PUBLIC "-//W3C//DTD SVG 20010904//EN"
 "http://www.w3.org/TR/2001/REC-SVG-20010904/DTD/svg10.dtd">
<svg version="1.0" xmlns="http://www.w3.org/2000/svg"
 width="300.000000pt" height="300.000000pt" viewBox="0 0 300.000000 300.000000"
 preserveAspectRatio="xMidYMid meet">
<metadata>
Created by potrace 1.10, written by Peter Selinger 2001-2011
</metadata>
<g transform="translate(0.000000,300.000000) scale(0.100000,-0.100000)"
fill="#000000" stroke="none">
<path d="M1630 2942 c-93 -42 -181 -95 -250 -152 -45 -37 -45 -37 -120 -33
-72 5 -77 4 -118 -27 -49 -35 -50 -50 -3 -26 37 20 70 20 95 1 19 -14 18 -16
-20 -50 -21 -20 -62 -47 -91 -60 -29 -13 -57 -33 -62 -44 -6 -11 -37 -28 -75
-41 -69 -23 -91 -40 -101 -81 -7 -27 8 -49 46 -70 22 -11 27 -9 84 37 54 43
102 55 173 43 134 -21 199 -2 222 65 6 20 15 36 19 36 12 0 39 -33 62 -76 l20
-39 -5 45 c-3 25 -8 55 -12 65 -6 16 0 13 24 -9 39 -36 41 -27 6 20 -15 19
-24 37 -21 40 10 10 74 -24 96 -52 62 -79 -66 -180 -265 -206 -79 -11 -216 -2
-269 17 -14 5 -11 -1 10 -19 17 -14 46 -31 65 -37 l35 -12 -30 -13 c-16 -7
-52 -16 -80 -19 -87 -13 -231 -132 -286 -236 -33 -62 -33 -180 0 -262 12 -32
25 -57 27 -55 2 3 7 29 12 59 l8 54 23 -43 c46 -88 46 -224 0 -314 -20 -39
-20 -39 -1 -29 27 15 83 95 112 161 13 30 27 59 30 63 4 4 36 -9 71 -29 72
-40 172 -84 191 -84 7 1 -4 10 -24 20 -36 20 -66 49 -37 38 228 -94 336 -162
398 -253 l34 -50 -6 48 c-12 86 -73 175 -166 238 -56 38 -62 49 -28 49 12 1
39 7 59 14 34 12 38 12 43 -5 10 -31 73 -78 127 -94 53 -15 173 -20 241 -9 62
11 42 19 -46 19 -60 0 -94 5 -125 19 -23 10 -42 22 -42 25 0 3 22 5 48 3 36
-3 54 1 72 16 14 11 22 24 17 28 -4 4 -13 2 -19 -4 -29 -29 -102 2 -96 41 5
38 63 67 133 67 128 0 214 -46 239 -128 l14 -47 12 28 c7 15 16 27 20 27 16 0
43 -81 47 -140 4 -55 1 -72 -20 -114 l-26 -49 34 33 c18 17 45 55 61 83 38 70
39 159 1 238 -14 30 -34 64 -44 76 -50 59 -235 176 -353 224 -66 26 -251 81
-230 68 8 -5 43 -26 77 -47 81 -48 173 -115 173 -125 0 -5 -4 -6 -9 -2 -13 7
-195 34 -200 29 -3 -2 15 -12 38 -21 l43 -17 -58 -16 c-58 -16 -60 -16 -84 5
-47 40 -59 47 -107 61 l-48 14 38 -30 c29 -25 37 -38 37 -65 0 -41 -41 -79
-103 -96 -54 -14 -185 -6 -223 15 l-29 15 33 1 c18 0 63 8 100 17 l67 18 -85
6 c-118 8 -186 38 -211 93 -18 39 -25 76 -14 76 2 0 25 -22 50 -49 26 -27 60
-54 76 -60 37 -13 37 -6 0 25 -43 35 -47 69 -16 115 32 49 80 74 191 98 86 18
88 18 65 0 -13 -11 -32 -19 -42 -19 -10 0 -19 -4 -19 -8 0 -8 125 1 175 14 17
4 84 33 151 65 100 48 129 67 171 113 l51 55 21 -50 c26 -60 38 -165 23 -208
-15 -43 0 -39 41 12 56 69 71 105 71 177 -1 80 -26 143 -100 246 -44 62 -49
71 -28 64 74 -28 171 -89 236 -148 21 -19 38 -30 38 -25 0 6 -24 45 -53 89
-37 56 -72 93 -119 129 l-68 50 63 12 c34 7 81 12 104 13 23 0 45 5 48 10 6 9
-73 14 -243 15 -28 0 -52 2 -52 5 0 4 140 40 375 95 51 12 -351 -6 -439 -20
-55 -8 -102 -15 -105 -15 -2 0 4 7 15 16 19 15 19 15 -1 10 -11 -3 -51 -12
-90 -21 -38 -8 -81 -18 -95 -21 l-25 -7 20 22 c12 12 41 25 65 30 l45 9 -33 7
-33 8 33 35 c18 19 59 54 92 78 71 53 58 55 -54 6z m-89 -103 c-10 -17 -28
-37 -40 -45 -24 -17 -27 -46 -7 -64 12 -9 31 -8 88 4 40 8 96 14 123 13 28 -1
84 2 125 6 47 5 67 4 55 -2 -56 -24 -53 -63 5 -75 17 -3 30 -12 30 -20 0 -8
30 -40 68 -72 80 -67 91 -86 29 -46 -24 15 -63 34 -86 42 -37 12 -44 12 -57
-2 -19 -18 -12 -34 44 -107 60 -79 82 -136 82 -219 0 -73 -21 -139 -40 -127
-5 3 -7 12 -4 20 14 34 -52 195 -80 195 -6 0 -34 -23 -61 -51 -39 -40 -78 -65
-170 -109 -66 -32 -141 -62 -167 -68 -43 -8 -49 -7 -61 11 -13 20 -17 20 -88
8 -101 -18 -174 -54 -210 -104 -16 -22 -29 -46 -29 -54 0 -18 -7 -17 -37 7
-38 29 -57 10 -51 -51 6 -58 30 -91 91 -124 35 -20 45 -30 38 -39 -17 -20 15
-54 62 -67 66 -18 179 -13 229 9 52 22 98 74 98 108 0 30 5 30 41 0 28 -24 30
-24 85 -9 31 8 63 21 71 28 9 10 28 12 63 8 33 -4 55 -2 65 7 20 17 19 23 -11
59 l-26 31 48 -20 c81 -35 203 -112 264 -167 77 -70 95 -117 90 -233 l-2 -45
-12 45 c-23 81 -58 134 -85 126 -10 -3 -26 9 -42 33 -35 50 -105 82 -191 89
-86 6 -130 -3 -168 -34 -22 -19 -30 -34 -30 -59 0 -19 5 -37 11 -40 6 -5 3
-13 -11 -22 -14 -10 -19 -21 -15 -34 4 -10 4 -19 0 -19 -21 0 -88 45 -111 75
-30 40 -36 41 -110 19 -87 -25 -88 -42 -2 -114 40 -33 82 -72 93 -88 18 -25
15 -24 -32 11 -86 63 -260 140 -318 142 -38 0 -66 10 -116 38 -39 22 -73 35
-82 31 -9 -3 -30 -34 -46 -67 l-30 -62 -1 75 c0 57 -6 87 -24 125 -31 68 -50
83 -75 61 -17 -16 -19 -16 -25 6 -12 46 -5 133 14 175 43 97 188 215 277 227
55 7 113 38 113 61 0 12 14 15 68 15 262 0 457 149 355 271 -30 36 -84 62
-108 53 -9 -4 -19 -19 -22 -35 -6 -30 -21 -37 -41 -17 -15 15 -37 -4 -63 -53
-24 -47 -57 -55 -164 -41 -110 15 -142 8 -207 -43 -47 -38 -69 -43 -87 -21
-21 25 3 50 73 74 36 13 74 34 83 46 10 11 29 26 43 32 21 9 26 8 35 -10 7
-15 22 -22 49 -24 35 -3 44 2 87 44 27 27 49 56 49 66 0 23 -41 33 -72 18 -19
-10 -21 -10 -10 1 15 17 16 51 0 67 -10 10 -2 11 34 6 44 -6 50 -4 95 33 50
42 153 112 165 112 4 1 -1 -13 -11 -30z m-256 -244 c-38 -33 -58 -44 -84 -45
-29 0 -32 2 -21 15 13 15 127 74 145 75 5 0 -13 -20 -40 -45z"/>
<path d="M263 1049 c-42 -51 -67 -93 -89 -155 -20 -52 -27 -84 -20 -84 6 0 36
45 66 100 55 99 55 100 93 100 37 0 107 -23 107 -35 0 -4 -40 -59 -90 -124
-114 -150 -143 -165 -228 -115 l-44 26 -31 -30 -31 -31 30 -47 c95 -155 373
-132 534 43 117 127 104 276 -32 365 -65 43 -108 58 -164 58 -41 0 -45 -3
-101 -71z m204 13 c99 -44 143 -104 143 -190 0 -66 -13 -73 -35 -19 -27 67
-78 121 -147 156 -35 17 -78 31 -96 31 -33 0 -41 10 -19 28 31 25 91 23 154
-6z m37 -143 c108 -128 52 -255 -123 -276 -48 -5 -151 12 -151 26 0 4 16 23
36 42 46 43 114 139 148 207 30 59 41 59 90 1z m-402 -219 c18 -11 47 -20 63
-20 20 0 35 -7 43 -21 17 -26 71 -49 119 -49 34 -1 36 -2 18 -12 -11 -7 -56
-12 -100 -12 -64 -1 -89 4 -127 23 -59 28 -96 75 -78 96 16 19 23 19 62 -5z"/>
<path d="M2143 1050 c-42 -51 -67 -94 -89 -155 -20 -52 -27 -85 -20 -85 6 0
36 45 66 100 55 99 55 100 93 100 36 0 107 -23 107 -34 0 -7 -73 -105 -138
-186 -70 -88 -105 -98 -180 -54 l-44 26 -31 -31 -32 -31 20 -36 c52 -97 185
-136 330 -98 207 53 345 254 276 398 -39 80 -163 156 -253 156 -47 0 -49 -1
-105 -70z m217 5 c52 -27 108 -79 121 -113 10 -27 11 -77 2 -110 -5 -21 -10
-17 -39 39 -19 34 -43 73 -55 85 -31 33 -139 84 -177 84 -33 0 -41 10 -19 28
33 27 98 21 167 -13z m16 -127 c33 -36 64 -104 64 -140 0 -75 -70 -132 -179
-145 -44 -5 -151 12 -151 24 0 3 26 34 58 68 32 35 80 102 106 149 52 92 57
94 102 44z m-396 -228 c22 -11 52 -20 67 -20 18 0 33 -8 41 -21 17 -26 71 -49
119 -49 34 -1 36 -2 18 -12 -35 -21 -174 -15 -227 9 -54 25 -95 78 -76 100 13
16 12 17 58 -7z"/>
<path d="M2785 967 c-22 -66 -23 -87 -4 -125 11 -21 25 -65 31 -98 14 -72 12
-68 35 -55 10 5 26 12 36 15 9 3 21 16 27 30 5 13 25 45 44 71 28 37 36 56 36
90 0 59 -19 74 -61 47 -19 -12 -27 -22 -20 -26 14 -9 13 -60 -3 -111 l-12 -40
-13 55 c-21 95 -40 136 -67 148 -19 9 -26 9 -29 -1z m56 -108 c8 -35 21 -75
28 -88 9 -15 10 -26 3 -33 -13 -13 -32 -1 -32 20 0 9 -11 43 -24 75 -24 56
-24 101 -2 94 6 -2 18 -32 27 -68z m119 24 c0 -43 -5 -41 -13 5 -4 18 -2 32 3
32 6 0 10 -16 10 -37z"/>
<path d="M680 857 c0 -101 2 -117 21 -141 28 -36 84 -37 93 -2 3 13 9 31 12
39 3 10 -2 18 -15 22 -24 7 -29 53 -9 84 10 17 14 18 33 5 21 -14 23 -13 29
23 3 21 9 48 12 61 6 19 3 22 -24 22 -34 0 -41 -8 -58 -60 l-12 -35 -1 43 c-1
37 -4 42 -25 42 -13 0 -31 3 -40 6 -14 5 -16 -8 -16 -109z m137 51 c-3 -7 -5
-2 -5 12 0 14 2 19 5 13 2 -7 2 -19 0 -25z m-81 5 c3 -10 9 -25 14 -34 4 -9 4
-22 -1 -30 -14 -22 -10 -61 7 -80 16 -18 13 -49 -5 -49 -5 0 -17 7 -25 16 -12
12 -16 37 -16 105 0 54 4 89 10 89 6 0 13 -8 16 -17z"/>
<path d="M909 929 c-41 -52 -51 -91 -43 -172 5 -60 9 -68 30 -73 26 -7 48 13
81 74 10 17 20 32 23 32 4 0 4 -27 2 -59 l-4 -59 43 14 44 15 -2 101 c-1 118
-9 131 -91 153 l-52 13 -31 -39z m119 -20 c21 -8 22 -14 22 -99 0 -53 -4 -90
-10 -90 -5 0 -10 15 -10 34 0 19 -4 37 -9 41 -5 3 -7 21 -4 39 5 34 -7 53 -53
83 -17 11 -15 12 11 6 17 -3 40 -10 53 -14z m-47 -38 l23 -18 -28 -47 c-15
-25 -28 -46 -29 -46 -1 0 -3 29 -4 65 -1 36 2 65 6 65 5 0 19 -8 32 -19z m-61
-67 c8 -46 8 -70 1 -77 -14 -14 -21 -6 -28 36 -5 33 3 107 11 107 2 0 9 -30
16 -66z"/>
<path d="M1158 907 c-29 -49 -38 -74 -38 -110 0 -116 53 -137 111 -42 l19 30
0 -87 0 -87 -31 11 c-17 6 -35 18 -41 28 -11 17 -13 17 -30 -5 -10 -13 -18
-39 -18 -59 0 -44 28 -66 85 -66 37 0 43 4 74 50 33 49 35 56 44 180 11 171
-1 196 -103 214 -34 5 -36 4 -72 -57z m117 11 c24 -11 25 -15 26 -97 1 -117
-1 -162 -9 -186 -6 -18 -10 8 -24 160 -1 11 2 32 6 47 7 24 3 33 -24 58 -34
32 -23 40 25 18z m-33 -46 c16 -14 16 -17 -2 -51 -38 -71 -40 -70 -40 7 0 76
2 79 42 44z m-61 -122 c2 -9 -2 -15 -11 -15 -17 0 -26 72 -14 114 7 22 9 17
14 -29 4 -30 8 -62 11 -70z m81 -154 c21 19 21 19 10 -2 -18 -34 -39 -46 -74
-42 -29 3 -33 7 -36 35 l-3 31 41 -20 c40 -20 41 -20 62 -2z"/>
<path d="M1678 952 l-38 -17 0 -127 0 -127 33 5 c17 3 37 7 43 9 8 3 10 29 7
88 -6 87 8 140 29 119 15 -15 22 -140 10 -189 -5 -24 -7 -43 -3 -43 3 0 24 15
45 33 38 33 39 35 44 115 6 102 -1 130 -35 143 -22 8 -32 6 -54 -11 -35 -25
-42 -25 -34 0 7 23 3 24 -47 2z m140 -97 c5 -106 -10 -139 -19 -42 -3 42 -12
83 -18 90 -13 16 -3 29 19 25 11 -3 16 -20 18 -73z m-116 -22 c-3 -97 -6 -113
-22 -113 -11 0 -15 182 -3 193 21 22 28 2 25 -80z"/>
<path d="M2581 936 l-34 -35 5 -87 c4 -80 7 -89 32 -111 15 -12 38 -23 51 -23
31 0 77 40 92 80 12 31 11 32 -6 16 -23 -21 -54 -20 -75 3 -16 18 -16 19 8 19
14 0 39 5 56 12 28 12 30 16 30 65 0 57 -16 85 -49 85 -10 0 -31 3 -47 6 -24
4 -35 -1 -63 -30z m31 -28 c-26 -26 -8 -125 30 -165 12 -12 17 -23 12 -24 -5
0 -17 -2 -27 -4 -30 -6 -47 34 -47 109 0 51 4 74 17 88 9 10 19 16 21 13 3 -3
0 -11 -6 -17z m94 8 c3 -8 4 -23 2 -34 -2 -16 -7 -14 -25 14 -22 33 -22 34 -2
34 11 0 22 -6 25 -14z m-35 -50 c10 -35 4 -46 -22 -46 -16 0 -19 7 -19 41 0
32 3 40 17 37 9 -2 20 -16 24 -32z"/>
<path d="M1421 921 c-74 -93 -67 -182 19 -226 42 -22 58 -19 105 20 55 44 75
111 52 167 -8 20 -20 39 -26 43 -9 5 -9 10 0 21 10 12 1 14 -54 14 -64 0 -66
-1 -96 -39z m131 -18 c20 -18 25 -106 8 -133 -7 -11 -10 1 -10 40 0 32 -7 63
-15 74 -27 36 -15 49 17 19z m-45 -25 c18 -22 25 -58 18 -94 -7 -39 -13 -41
-43 -14 -27 26 -36 60 -28 105 6 30 10 34 25 26 10 -6 22 -16 28 -23z m-36
-134 c35 -36 27 -44 -21 -19 -35 18 -50 43 -50 84 0 58 13 67 25 17 7 -29 25
-61 46 -82z"/>
</g>
</svg>
